<svg width="1390" height="1035" viewBox="0 0 1390 1035" fill="none" xmlns="http://www.w3.org/2000/svg">
<g clip-path="url(#clip0_198_364)">
<path d="M942.34 306.842C465.147 485.941 -202.924 867.545 942.34 961.169V306.842Z" fill="#0172FF"/>
<path d="M1074.15 353.916C598.136 532.504 -68.2761 822.307 1074.15 915.664V353.916Z" fill="#0F172A"/>
<path d="M1199.68 390.006C723.668 546.145 57.2551 799.521 1199.68 881.143V390.006Z" fill="#0172FF"/>
<path d="M1099.25 468.463C794.938 582.2 368.898 766.768 1099.25 826.224V468.463Z" fill="#0F172A"/>
<ellipse rx="1.56913" ry="2.35369" transform="matrix(-1 0 0 1 490.431 761.106)" fill="white"/>
<ellipse rx="0.784565" ry="1.56913" transform="matrix(-1 0 0 1 905.465 713.247)" fill="white"/>
<circle r="2.35369" transform="matrix(-1 0 0 1 310.764 335.871)" fill="white"/>
<ellipse rx="2.35369" ry="1.56913" transform="matrix(-1 0 0 1 75.3953 835.639)" fill="white"/>
<circle r="2.35369" transform="matrix(-1 0 0 1 665.388 941.555)" fill="white"/>
<circle r="2.35369" transform="matrix(-1 0 0 1 503.767 425.311)" fill="white"/>
<circle r="1.56913" transform="matrix(-1 0 0 1 121.685 583.009)" fill="white"/>
<circle r="0.784565" transform="matrix(-1 0 0 1 422.173 528.874)" fill="white"/>
<ellipse cx="434.726" cy="796.411" rx="0.784565" ry="1.56913" fill="#0F172A"/>
<ellipse cx="896.835" cy="340.578" rx="1.56913" ry="0.784565" fill="#0F172A"/>
<circle cx="625.374" cy="862.313" r="1.56913" fill="#0F172A"/>
<circle cx="679.511" cy="370.392" r="16.4759" fill="white"/>
<circle cx="531.29" cy="615.174" r="24.1299" transform="rotate(18.3001 531.29 615.174)" fill="white"/>
<path d="M538.867 592.264C526.214 588.08 512.689 594.57 508.38 607.597C506.214 614.147 506.281 618.919 509.02 625.251C510.06 622.106 546.807 596.884 546.807 596.884C546.807 596.884 545.605 594.493 538.867 592.264Z" fill="#0F172A"/>
<ellipse cx="436.295" cy="854.468" rx="2.35369" ry="3.13826" fill="#0F172A"/>
<circle cx="620.667" cy="713.247" r="1.56913" fill="#0F172A"/>
<circle cx="732.076" cy="468.462" r="3.13826" fill="#0F172A"/>
<rect x="640.84" y="566.941" width="1.43143" height="1.43143" rx="0.265094" transform="rotate(-24.4476 640.84 566.941)" fill="white"/>
<rect x="357.906" y="852.713" width="2.87144" height="2.87144" rx="0.531777" transform="rotate(-24.4476 357.906 852.713)" fill="white"/>
<rect x="866.053" y="1007.9" width="2.87144" height="2.87144" rx="0.531777" transform="rotate(-24.4476 866.053 1007.9)" fill="white"/>
<rect x="4" y="389.988" width="2.87144" height="2.87144" rx="0.531777" transform="rotate(-24.4476 4 389.988)" fill="white"/>
<rect x="461.773" y="609.781" width="2.49115" height="2.49115" rx="0.481997" transform="rotate(35.3063 461.773 609.781)" fill="#0F172A"/>
<rect x="532.508" y="829.693" width="2.9651" height="2.9651" rx="0.619105" transform="rotate(30.4542 532.508 829.693)" fill="#0F172A"/>
<rect x="839.559" y="934.133" width="2.9651" height="2.9651" rx="0.619105" transform="rotate(-24.4476 839.559 934.133)" fill="#0F172A"/>
<rect x="867.943" y="524.396" width="2.9651" height="2.9651" rx="0.619105" transform="rotate(-24.4476 867.943 524.396)" fill="#0F172A"/>
<path d="M844.607 593.814C844.986 593.643 845.408 593.947 845.367 594.361L845.203 595.991C845.162 596.405 844.688 596.619 844.35 596.376L843.02 595.42C842.682 595.177 842.734 594.659 843.113 594.488L844.607 593.814Z" fill="white"/>
<path d="M506.391 693.042C506.521 693.285 506.48 693.583 506.29 693.782L504.944 695.184C504.753 695.382 504.457 695.435 504.209 695.316L502.46 694.469C502.212 694.349 502.07 694.083 502.107 693.811L502.372 691.885C502.409 691.613 502.618 691.395 502.889 691.347L504.802 691.003C505.073 690.955 505.344 691.086 505.474 691.329L506.391 693.042Z" fill="white"/>
<path d="M797.555 339.127C797.83 339.126 798.075 339.302 798.161 339.563L798.771 341.408C798.857 341.669 798.766 341.957 798.544 342.119L796.977 343.269C796.755 343.432 796.454 343.434 796.231 343.273L794.653 342.138C794.429 341.978 794.335 341.692 794.418 341.43L795.01 339.578C795.094 339.316 795.337 339.138 795.612 339.136L797.555 339.127Z" fill="white"/>
<path d="M730.181 683.557C730.27 683.661 730.283 683.81 730.212 683.926L729.712 684.751C729.641 684.867 729.503 684.925 729.37 684.894L728.432 684.673C728.299 684.642 728.201 684.528 728.19 684.392L728.11 683.431C728.099 683.295 728.177 683.168 728.302 683.115L729.191 682.742C729.317 682.689 729.463 682.724 729.552 682.827L730.181 683.557Z" fill="white"/>
<path d="M622.495 443.217C622.77 443.215 623.015 443.391 623.101 443.653L623.711 445.498C623.797 445.759 623.705 446.046 623.483 446.209L621.917 447.359C621.695 447.522 621.393 447.524 621.17 447.363L619.592 446.228C619.369 446.068 619.274 445.782 619.358 445.519L619.949 443.668C620.033 443.406 620.276 443.228 620.551 443.226L622.495 443.217Z" fill="white"/>
<path d="M775.308 760.123C775.415 760.29 775.403 760.508 775.277 760.662L774.388 761.749C774.263 761.903 774.052 761.959 773.867 761.887L772.558 761.378C772.372 761.306 772.255 761.122 772.266 760.924L772.346 759.522C772.357 759.323 772.495 759.155 772.687 759.104L774.045 758.746C774.237 758.696 774.44 758.775 774.548 758.942L775.308 760.123Z" fill="white"/>
<path d="M790.932 855.789C791.207 855.788 791.452 855.964 791.538 856.225L792.148 858.07C792.234 858.332 792.143 858.619 791.921 858.782L790.354 859.932C790.132 860.094 789.831 860.096 789.608 859.935L788.03 858.801C787.806 858.64 787.712 858.354 787.795 858.092L788.387 856.24C788.471 855.978 788.714 855.8 788.989 855.799L790.932 855.789Z" fill="white"/>
<path d="M568.561 952.311C568.836 952.309 569.081 952.485 569.167 952.746L569.777 954.592C569.863 954.853 569.772 955.14 569.55 955.303L567.983 956.453C567.761 956.616 567.46 956.617 567.236 956.457L565.658 955.322C565.435 955.161 565.341 954.875 565.424 954.613L566.016 952.762C566.1 952.5 566.343 952.321 566.618 952.32L568.561 952.311Z" fill="white"/>
<path d="M343.803 686.749C344.018 686.748 344.209 686.885 344.276 687.089L344.751 688.528C344.819 688.731 344.747 688.955 344.574 689.082L343.352 689.979C343.179 690.106 342.944 690.107 342.77 689.982L341.539 689.097C341.365 688.972 341.292 688.749 341.357 688.544L341.818 687.101C341.883 686.896 342.073 686.757 342.287 686.756L343.803 686.749Z" fill="#0F172A"/>
<path d="M365.257 764.077C365.524 763.956 365.821 764.17 365.792 764.462L365.56 766.778C365.531 767.07 365.197 767.22 364.959 767.049L363.069 765.69C362.831 765.519 362.868 765.154 363.135 765.034L365.257 764.077Z" fill="#0F172A"/>
<path opacity="0.3" d="M1158.41 432.32H971.769L831.332 4H1298.59L1158.41 432.32Z" fill="url(#paint0_linear_198_364)"/>
<path opacity="0.15" d="M1185.41 432.32H944.771L744.629 4H1385.29L1185.41 432.32Z" fill="url(#paint1_linear_198_364)"/>
<path d="M1184.11 195.835C1182.81 191.163 1181.26 186.49 1179.44 182.077C1177.88 178.702 1176.32 175.068 1174.51 171.953C1172.95 169.098 1171.13 166.242 1169.05 163.646C1167.24 161.05 1165.16 158.714 1163.08 156.378C1162.31 155.599 1161.53 154.561 1160.75 153.782L1145.17 137.688C1145.95 138.466 1146.73 139.505 1147.51 140.283C1149.59 142.62 1151.66 144.956 1153.48 147.552C1155.56 150.148 1157.37 153.003 1158.93 155.859C1160.75 159.233 1162.57 162.608 1163.86 165.983C1165.68 170.396 1167.24 175.068 1168.54 179.741C1172.43 194.797 1172.95 211.151 1169.57 228.543C1168.8 232.956 1167.76 237.11 1166.46 241.263C1164.9 246.455 1163.08 251.387 1160.75 256.319C1158.93 260.213 1157.11 263.847 1155.04 267.481C1153.22 270.856 1151.14 273.971 1149.07 277.086C1146.99 279.942 1144.91 282.797 1142.84 285.653C1140.76 288.248 1138.42 290.844 1136.09 293.44C1133.75 296.036 1131.15 298.372 1128.82 300.709C1126.22 303.045 1123.63 305.381 1120.77 307.718C1117.92 310.054 1114.8 312.39 1111.69 314.467C1108.05 316.803 1104.68 319.139 1100.78 320.957C1096.11 323.552 1091.44 325.629 1086.77 327.706C1070.41 334.196 1052.76 337.57 1035.11 336.791C1008.37 335.493 985.786 324.591 969.432 307.977L985.007 324.072C1001.1 340.945 1023.95 351.588 1050.68 352.886C1068.33 353.924 1085.99 350.55 1102.34 343.8C1107.01 341.983 1111.69 339.647 1116.36 337.051C1119.99 334.974 1123.63 332.898 1127.26 330.561C1130.38 328.485 1133.49 326.148 1136.35 323.812C1139.2 321.476 1141.8 319.399 1144.39 316.803C1146.99 314.467 1149.33 312.131 1151.66 309.535C1154 306.939 1156.33 304.343 1158.41 301.747C1160.75 298.892 1162.82 296.036 1164.64 293.181C1166.72 290.066 1168.8 286.951 1170.61 283.576C1172.69 279.942 1174.51 276.307 1176.32 272.414C1178.4 267.481 1180.48 262.549 1182.03 257.358C1183.33 253.204 1184.37 249.051 1185.15 244.638C1188.52 227.505 1188 210.891 1184.11 195.835Z" fill="url(#paint2_linear_198_364)"/>
<path d="M1079.76 108.875C1141.8 112.249 1182.29 165.725 1169.83 228.804C1157.37 291.625 1097.15 340.168 1035.11 336.793C973.066 333.418 932.57 279.943 945.03 216.863C957.231 154.043 1017.46 105.5 1079.76 108.875Z" fill="url(#paint3_linear_198_364)"/>
<path d="M1077.16 121.85C1132.19 124.705 1167.76 172.21 1156.86 227.762C1145.95 283.313 1092.48 326.145 1037.7 323.29C982.672 320.434 947.109 272.93 958.011 217.378C968.655 161.826 1022.13 118.994 1077.16 121.85Z" fill="url(#paint4_linear_198_364)"/>
<path d="M1038.82 200.875C1038.54 198.907 1038.2 195.174 1039.02 189.687C1042.16 168.645 1060.11 137.77 1060.11 137.414C1054.24 143.73 1045.78 153.518 1038.33 165.182C1030.89 176.843 1024.47 190.384 1022.7 204.211C1022.22 208.001 1022.14 211.344 1022.7 215.008C1023.23 218.467 1024.25 221.7 1025.62 224.705C1027.82 218.928 1032.05 212.047 1039.36 203.833C1039.13 202.839 1038.95 201.849 1038.82 200.875Z" fill="#FFB703"/>
<path d="M1088.35 219.575C1086.15 225.336 1081.92 232.197 1074.61 240.389C1070.63 244.838 1065.75 249.681 1059.79 254.948C1055.77 253.115 1047.36 249.008 1039.49 242.474C1040.27 234.427 1044.9 226.603 1050.04 222.443C1051.32 223.348 1052.7 224.071 1054.16 224.578C1054.9 224.829 1055.27 224.892 1055.38 224.911C1057.91 225.32 1060.82 224.141 1063.58 221.908C1068.73 217.751 1073.36 209.927 1074.13 201.877C1074.24 200.805 1074.27 199.726 1074.23 198.651C1074.11 195.607 1073.4 193.368 1072.71 191.223C1069.63 181.682 1063.5 175.585 1059.8 172.469C1059.81 172.475 1059.82 172.484 1059.83 172.491C1060.99 173.236 1085.4 188.975 1089.64 204.289C1090.73 208.264 1090.77 213.257 1088.35 219.575Z" fill="#FFB703"/>
<path d="M1074.55 201.435C1073.77 209.485 1069.14 217.306 1064 221.467C1062.72 220.561 1061.34 219.838 1059.88 219.331C1059.14 219.08 1058.77 219.014 1058.66 218.998C1056.13 218.589 1053.22 219.768 1050.45 222.001C1045.31 226.162 1040.68 233.986 1039.91 242.033C1039.8 243.105 1039.77 244.184 1039.81 245.259C1039.93 248.304 1040.64 250.543 1041.33 252.687C1044.28 261.813 1050.01 267.788 1053.74 271.018C1053.89 271.147 1054.03 271.266 1054.17 271.383C1054.2 271.405 1054.22 271.423 1054.24 271.442C1054.23 271.436 1054.21 271.417 1054.16 271.389C1052.53 270.338 1028.59 254.769 1024.4 239.621C1023.3 235.649 1023.27 230.655 1025.69 224.338C1027.89 218.577 1032.12 211.715 1039.44 203.523C1043.33 199.164 1048.09 194.432 1053.88 189.29C1054 189.18 1054.13 189.073 1054.25 188.963C1058.27 190.79 1066.67 194.9 1074.55 201.435Z" fill="#243455"/>
<path d="M1091.34 239.701C1091.82 235.91 1091.9 232.568 1091.34 228.904C1090.81 225.444 1089.8 222.212 1088.42 219.207C1086.22 224.984 1081.99 231.865 1074.69 240.079C1074.91 241.072 1075.09 242.062 1075.22 243.037C1075.49 245.004 1075.84 248.738 1075.02 254.225C1071.88 275.267 1053.93 306.141 1053.93 306.498C1059.8 300.182 1068.26 290.394 1075.71 278.729C1083.15 267.068 1089.57 253.528 1091.34 239.701Z" fill="#243455"/>
<path d="M1088.38 219.564C1086.2 225.327 1082.01 232.19 1074.77 240.384C1070.84 244.835 1066.01 249.679 1060.11 254.948C1068.58 245.581 1073.37 236.616 1076.08 230.488C1079.72 222.253 1082.36 216.283 1081.92 207.969C1081.29 195.953 1074.66 187.309 1071.82 183.604C1067.69 178.222 1063.28 174.652 1060.15 172.469C1061.3 173.214 1085.45 188.958 1089.64 204.277C1090.73 208.249 1090.76 213.244 1088.38 219.564Z" fill="#FB8500"/>
<path d="M1053.93 271.416C1053.91 271.422 1053.88 271.432 1053.86 271.438C1053.85 271.441 1053.85 271.444 1053.85 271.444C1052.23 270.398 1028.54 254.887 1024.4 239.795C1023.31 235.838 1023.28 230.863 1025.67 224.569C1027.84 218.83 1032.03 211.993 1039.28 203.832C1043.13 199.49 1047.84 194.775 1053.57 189.652C1045.32 198.832 1040.63 207.595 1037.96 213.61C1034.32 221.812 1031.69 227.758 1032.13 236.036C1032.76 248.007 1039.38 256.613 1042.22 260.304C1046.16 265.41 1050.34 268.878 1053.44 271.075C1053.6 271.191 1053.77 271.303 1053.93 271.416Z" fill="#132F45"/>
<path d="M972.809 88.8832C978.974 88.8832 983.971 83.8856 983.971 77.7209C983.971 71.5561 978.974 66.5586 972.809 66.5586C966.644 66.5586 961.646 71.5561 961.646 77.7209C961.646 83.8856 966.644 88.8832 972.809 88.8832Z" fill="url(#paint5_linear_198_364)"/>
<path opacity="0.5" d="M1003.7 374.168C1003.7 381.956 997.469 388.445 989.422 388.445C981.375 388.445 975.145 382.215 975.145 374.168C975.145 366.121 981.375 359.891 989.422 359.891C997.469 359.891 1003.7 366.38 1003.7 374.168Z" fill="url(#paint6_linear_198_364)"/>
<path d="M1164.12 339.643C1164.12 342.498 1161.79 344.835 1158.93 344.835C1156.07 344.835 1153.74 342.498 1153.74 339.643C1153.74 336.787 1156.07 334.451 1158.93 334.451C1161.79 334.451 1164.12 336.787 1164.12 339.643Z" fill="url(#paint7_linear_198_364)"/>
<path d="M1078.46 411.288C1078.46 413.624 1076.64 415.701 1074.05 415.701C1071.71 415.701 1069.63 413.884 1069.63 411.288C1069.63 408.692 1071.45 406.875 1074.05 406.875C1076.64 406.875 1078.46 408.952 1078.46 411.288Z" fill="url(#paint8_linear_198_364)"/>
<path d="M924.264 189.347C924.264 191.683 922.446 193.76 919.85 193.76C917.514 193.76 915.438 191.942 915.438 189.347C915.438 186.751 917.255 184.934 919.85 184.934C922.187 184.934 924.264 187.01 924.264 189.347Z" fill="url(#paint9_linear_198_364)"/>
<path d="M1131.16 82.1337C1131.16 84.47 1129.34 86.5467 1126.74 86.5467C1124.41 86.5467 1122.33 84.7296 1122.33 82.1337C1122.33 79.7974 1124.15 77.7207 1126.74 77.7207C1129.34 77.7207 1131.16 79.7974 1131.16 82.1337Z" fill="url(#paint10_linear_198_364)"/>
<path opacity="0.2" d="M1133.49 388.448C1137.08 388.448 1139.98 385.543 1139.98 381.958C1139.98 378.374 1137.08 375.469 1133.49 375.469C1129.91 375.469 1127 378.374 1127 381.958C1127 385.543 1129.91 388.448 1133.49 388.448Z" fill="url(#paint11_linear_198_364)"/>
<path opacity="0.3" d="M1206.7 168.839C1206.7 172.474 1203.84 175.329 1200.21 175.329C1196.57 175.329 1193.72 172.474 1193.72 168.839C1193.72 165.205 1196.57 162.35 1200.21 162.35C1203.84 162.35 1206.7 165.205 1206.7 168.839Z" fill="url(#paint12_linear_198_364)"/>
<g filter="url(#filter0_d_198_364)">
<path d="M1189.5 886.628C1190.23 888.818 1190.6 891.374 1191.33 893.93C1201.18 931.539 1212.5 987.77 1209.58 1011.14C1208.85 1016.62 1207.39 1020.27 1204.83 1021.73C1204.1 1022.09 1203.37 1022.09 1202.64 1022.09C1200.09 1022.46 1196.8 1021.36 1192.79 1019.54C1169.42 1007.85 1128.53 960.385 1121.23 944.319C1120.13 942.493 1119.77 940.667 1120.13 939.937C1124.15 923.871 1173.44 853.766 1179.28 857.417C1180.74 858.512 1184.75 870.197 1189.5 886.628Z" fill="url(#paint13_linear_198_364)"/>
<path d="M1121.23 944.316C1121.23 950.158 1186.94 909.993 1179.28 857.414C1179.28 857.414 1121.23 889.546 1121.23 944.316Z" fill="url(#paint14_linear_198_364)"/>
<path opacity="0.3" d="M1189.5 886.628C1189.5 886.628 1155.54 913.648 1154.08 935.921C1152.62 957.829 1173.8 999.819 1193.15 1019.54C1169.78 1007.85 1128.89 960.385 1121.59 944.319C1120.5 942.493 1120.13 940.667 1120.5 939.937C1124.51 923.871 1173.8 853.766 1179.64 857.417C1180.74 858.512 1184.75 870.197 1189.5 886.628Z" fill="url(#paint15_linear_198_364)"/>
<path d="M958.761 895.753C958.03 897.943 957.665 900.499 956.935 903.055C947.078 940.664 935.76 996.895 938.681 1020.26C939.411 1025.74 940.871 1029.39 943.427 1030.85C944.157 1031.22 944.887 1031.22 945.617 1031.22C948.173 1031.58 951.459 1030.49 955.475 1028.66C978.841 1016.98 1019.73 969.51 1027.03 953.444C1028.13 951.618 1028.49 949.792 1028.13 949.062C1024.11 932.996 974.825 862.891 968.983 866.542C967.158 867.637 963.142 878.956 958.761 895.753Z" fill="url(#paint16_linear_198_364)"/>
<path d="M1026.67 953.447C1026.67 959.289 960.953 919.124 968.62 866.545C968.62 866.545 1026.67 898.677 1026.67 953.447Z" fill="url(#paint17_linear_198_364)"/>
<path d="M981.034 954.178C983.59 956.369 974.828 979.372 969.351 978.642C964.24 978.277 975.193 949.431 981.034 954.178Z" fill="white"/>
<path d="M1178.91 988.132C1182.2 987.767 1189.5 1001.28 1185.12 1004.56C1180.74 1007.85 1171.24 988.863 1178.91 988.132Z" fill="white"/>
<path opacity="0.3" d="M958.764 895.753C958.764 895.753 992.717 922.773 994.178 945.046C995.638 966.954 974.463 1008.94 955.113 1028.66C978.479 1016.98 1019.37 969.51 1026.67 953.444C1027.77 951.618 1028.13 949.792 1027.77 949.062C1023.75 932.996 974.463 862.891 968.622 866.542C967.161 867.637 963.145 878.956 958.764 895.753Z" fill="url(#paint18_linear_198_364)"/>
<path d="M974.829 435.322C974.829 435.322 951.828 415.605 924.081 412.318C924.081 412.318 915.684 416.335 905.462 447.371C895.604 478.042 913.859 539.02 913.859 539.02L974.829 435.322Z" fill="url(#paint19_linear_198_364)"/>
<path d="M913.127 427.654C913.127 427.654 917.508 417.065 924.08 412.318C924.08 412.318 947.08 433.496 945.985 484.25L939.413 491.187L913.127 427.654Z" fill="url(#paint20_linear_198_364)"/>
<path d="M1163.58 435.322C1163.58 435.322 1186.58 415.605 1214.33 412.318C1214.33 412.318 1222.72 416.335 1232.94 447.371C1242.8 478.042 1224.55 539.02 1224.55 539.02L1163.58 435.322Z" fill="url(#paint21_linear_198_364)"/>
<path d="M1214.33 412.314C1214.33 412.314 1191.69 436.413 1191.69 475.482L1200.45 480.959L1226.01 428.38C1226.01 428.38 1217.61 411.584 1214.33 412.314Z" fill="url(#paint22_linear_198_364)"/>
<path d="M1199.72 478.408C1199.72 478.408 1193.88 445.181 1215.78 420.352C1215.78 420.352 1240.61 432.036 1250.83 475.487C1261.06 518.938 1234.4 544.862 1234.4 544.862L1199.72 478.408Z" fill="url(#paint23_linear_198_364)"/>
<path d="M938.686 478.408C938.686 478.408 944.527 445.181 922.622 420.352C922.622 420.352 897.796 432.036 887.573 475.487C877.351 518.938 904.002 544.862 904.002 544.862L938.686 478.408Z" fill="url(#paint24_linear_198_364)"/>
<path d="M1230.39 662.8C1179.27 734.366 939.776 728.889 908.744 671.198C888.299 633.589 890.489 576.628 910.204 524.414C935.76 455.769 991.619 395.156 1065.37 395.156C1152.26 395.156 1219.07 481.693 1239.15 560.562C1249.01 600.727 1247.55 638.701 1230.39 662.8Z" fill="url(#paint25_linear_198_364)"/>
<path d="M926.633 596.343C937.951 644.906 1148.61 650.383 1200.08 606.201C1251.56 562.02 1177.45 405.378 1063.18 412.315C959.126 418.522 908.014 516.744 926.633 596.343Z" fill="#DFE3FB"/>
<path d="M925.541 590.505C936.859 639.068 1147.52 644.545 1198.99 600.363C1250.84 556.182 1176.36 399.54 1062.08 406.477C958.034 412.685 906.922 510.906 925.541 590.505Z" fill="url(#paint26_linear_198_364)"/>
<path opacity="0.3" d="M1230.39 662.8C1179.27 734.366 939.776 728.889 908.744 671.198C888.299 633.589 890.489 576.628 910.204 524.414C909.474 527.335 889.394 600.727 909.839 632.859C930.649 665.721 1013.52 661.339 1102.61 657.323C1191.69 653.672 1220.89 640.527 1235.86 615.332C1247.55 595.615 1235.86 552.164 1230.39 534.273L1239.15 560.197C1249.01 600.727 1247.55 638.701 1230.39 662.8Z" fill="url(#paint27_linear_198_364)"/>
<path d="M1065.37 715.382C1015.72 715.382 979.573 709.905 959.493 701.507C946.35 696.395 939.778 689.823 940.874 683.615C941.604 679.599 951.096 676.313 966.43 673.392C1011.7 665.359 1105.16 662.803 1155.55 670.471C1159.93 671.201 1163.94 671.931 1167.59 672.661C1168.32 672.661 1169.05 673.026 1169.78 673.026H1170.15C1178.91 675.217 1185.12 677.773 1187.67 681.059C1188.4 681.79 1188.77 682.52 1189.13 683.615C1194.61 699.681 1110.64 715.382 1065.37 715.382Z" fill="url(#paint28_linear_198_364)"/>
<path opacity="0.5" d="M1189.13 679.599C1189.13 679.964 1188.77 680.694 1188.4 681.059C1183.66 687.997 1163.58 696.76 1163.58 696.76C1163.58 696.76 1087.64 665.724 1025.94 679.599C964.239 693.474 959.493 701.507 959.493 701.507C946.35 696.395 939.778 689.823 940.874 683.615C941.604 679.599 951.096 676.313 966.43 673.392C1011.7 665.359 1105.16 662.803 1155.55 670.471C1160.66 671.566 1165.77 672.296 1169.78 673.392H1170.15C1182.56 675.948 1189.86 678.138 1189.13 679.599Z" fill="url(#paint29_linear_198_364)"/>
<path d="M1167.96 672.658C1156.28 683.977 1099.69 693.471 1067.56 693.471C1009.88 693.471 974.827 684.342 966.795 673.388C1016.08 664.625 1122.32 662.434 1167.96 672.658Z" fill="url(#paint30_linear_198_364)"/>
<path opacity="0.5" d="M908.747 671.196C908.747 671.196 918.97 659.511 938.684 650.018C958.399 640.525 976.654 633.222 979.574 625.554C982.495 617.886 925.176 622.268 925.176 622.268L896.699 634.682C896.699 634.317 901.08 657.321 908.747 671.196Z" fill="url(#paint31_linear_198_364)"/>
<path d="M885.38 490.82C885.38 490.82 899.983 500.314 890.491 522.222C890.491 522.222 821.489 559.831 825.505 600.726C828.791 635.048 924.079 618.252 924.079 618.252L927.365 629.571C927.365 629.571 846.315 645.272 818.568 626.285C818.568 626.285 809.076 603.647 832.807 563.117C856.173 522.952 885.38 490.82 885.38 490.82Z" fill="url(#paint32_linear_198_364)"/>
<path d="M912.031 615.332C903.268 625.191 921.888 635.78 936.857 637.606C954.016 639.431 983.953 632.859 982.128 615.697C980.302 598.536 932.476 592.329 912.031 615.332Z" fill="url(#paint33_linear_198_364)"/>
<path opacity="0.5" d="M959.856 467.453C957.3 483.153 992.349 482.423 1040.18 480.963C1097.49 479.137 1155.18 528.43 1188.77 493.012C1194.24 487.17 1139.48 410.492 1073.03 411.952C1006.59 413.413 962.411 453.943 959.856 467.453Z" fill="url(#paint34_linear_198_364)"/>
<path opacity="0.5" d="M992.348 604.746C989.427 616.065 1013.16 625.558 1071.94 624.828C1146.42 624.098 1159.56 605.841 1158.1 604.746C1158.1 604.746 1127.07 623.002 1069.02 609.857C1030.68 601.459 995.634 592.696 992.348 604.746Z" fill="url(#paint35_linear_198_364)"/>
<path opacity="0.3" d="M1229.66 533.178L1227.83 528.066C1228.2 528.797 1228.93 530.622 1229.66 533.178Z" fill="url(#paint36_linear_198_364)"/>
<path d="M1105.89 405.012C1100.78 406.107 1143.13 428.746 1144.96 425.825C1146.78 423.269 1119.77 401.726 1105.89 405.012Z" fill="white"/>
<path d="M1186.94 421.81C1182.56 424 1182.92 428.747 1191.69 427.652C1200.45 426.556 1205.2 419.619 1204.1 418.158C1203.37 417.063 1191.69 419.254 1186.94 421.81Z" fill="white"/>
<path d="M913.127 617.16C912.762 620.081 973.366 620.811 974.827 609.857C976.287 599.268 917.143 595.617 913.127 617.16Z" fill="url(#paint37_linear_198_364)"/>
<path opacity="0.2" d="M928.097 574.438C928.097 574.438 925.542 558.007 928.463 535.734C931.383 513.46 937.225 499.22 940.876 501.046C944.526 503.237 943.796 524.779 945.987 546.322C947.447 563.119 950.733 578.819 950.733 578.819C950.733 578.819 935.399 593.425 928.097 574.438Z" fill="url(#paint38_linear_198_364)"/>
<path opacity="0.72" d="M1234.77 440.07C1234.77 440.07 1226.74 430.211 1215.79 432.767C1204.83 435.323 1204.1 470.011 1210.67 470.741C1217.25 471.471 1220.17 451.754 1224.91 448.468C1230.02 445.181 1238.79 446.642 1238.79 446.642L1234.77 440.07Z" fill="url(#paint39_linear_198_364)"/>
<path opacity="0.72" d="M895.967 452.118C895.967 452.118 900.348 447.371 909.84 448.831C919.332 450.292 924.809 470.009 929.555 467.818C934.301 465.993 931.015 434.226 917.872 425.098C917.872 425.098 901.443 439.338 895.967 452.118Z" fill="url(#paint40_linear_198_364)"/>
<path d="M882.825 498.125C882.825 498.125 849.236 535.734 851.427 538.655C853.252 541.211 885.015 502.141 882.825 498.125Z" fill="url(#paint41_linear_198_364)"/>
<path d="M999.286 701.87C994.905 723.413 986.143 754.084 971.54 777.452C947.444 816.157 912.76 863.989 911.665 865.45C894.871 871.657 877.347 867.64 866.394 863.989C859.822 861.798 855.441 859.242 855.441 859.242C855.441 859.242 869.68 812.14 906.189 763.212C924.443 738.383 946.348 716.475 964.238 700.409C964.238 700.409 964.238 700.409 964.603 700.044C964.968 699.679 964.968 699.679 965.333 699.314L965.698 698.949L966.063 698.583L966.428 698.218C984.683 682.152 998.921 673.389 1001.11 675.215C1002.94 676.675 1002.21 687.264 999.286 701.87Z" fill="url(#paint42_linear_198_364)"/>
<path opacity="0.3" d="M999.286 701.867C994.905 723.41 986.143 754.081 971.54 777.45C947.444 816.154 912.76 863.986 911.665 865.447L866.394 863.986C859.822 861.795 855.441 859.24 855.441 859.24C855.441 859.24 869.68 812.137 906.189 763.209C924.443 738.38 946.348 716.472 964.238 700.406C954.015 709.9 909.84 750.795 892.68 789.499C873.331 833.68 919.697 824.187 942.698 798.992C965.698 773.798 998.556 701.137 998.556 701.137L999.286 701.867Z" fill="url(#paint43_linear_198_364)"/>
<path d="M951.827 747.149C948.541 745.323 960.224 727.066 965.7 727.797C971.176 728.527 954.382 748.975 951.827 747.149Z" fill="white"/>
<path d="M934.67 772.704C932.115 770.878 928.099 777.816 930.289 779.641C932.48 781.102 937.226 774.894 934.67 772.704Z" fill="white"/>
<path d="M863.108 839.525C863.108 839.525 874.791 816.156 894.506 825.65C914.221 834.778 899.982 866.91 899.982 866.91C899.982 866.91 873.696 878.959 855.441 859.972C855.441 859.607 857.997 851.209 863.108 839.525Z" fill="url(#paint44_linear_198_364)"/>
<path d="M862.378 833.681C862.378 833.681 887.569 823.457 899.252 835.142C908.744 844.635 905.093 865.083 899.617 878.228C894.141 891.372 855.806 933.363 838.647 932.998C821.488 932.267 812.361 913.646 819.298 891.738C819.298 891.738 843.759 848.287 862.378 833.681Z" fill="url(#paint45_linear_198_364)"/>
<path d="M862.379 833.686C862.379 833.686 862.014 857.054 847.046 873.12C832.077 889.186 822.22 924.239 822.22 924.239C822.22 924.239 814.188 915.476 818.934 891.742C824.045 868.008 862.379 833.686 862.379 833.686Z" fill="url(#paint46_linear_198_364)"/>
<path opacity="0.5" d="M820.393 886.99L833.171 895.389C833.171 895.389 837.917 884.069 844.488 876.036C851.06 868.003 856.536 852.303 856.536 852.303L820.393 886.99Z" fill="url(#paint47_linear_198_364)"/>
<path d="M858.363 836.604C858.363 836.604 847.045 839.159 829.886 850.479C813.092 862.163 802.869 875.673 801.774 878.959C800.679 882.61 805.79 888.818 811.631 889.183C817.473 889.548 837.188 878.229 837.188 878.229C837.188 878.229 863.839 853.035 858.363 836.604Z" fill="url(#paint48_linear_198_364)"/>
<path d="M847.046 873.115C847.046 873.115 878.078 862.161 901.444 873.115L899.253 878.226C899.253 878.226 875.523 866.542 844.125 876.036L847.046 873.115Z" fill="url(#paint49_linear_198_364)"/>
<path d="M817.108 874.214C815.647 872.389 832.441 861.07 833.171 863.991C834.267 866.912 819.298 876.77 817.108 874.214Z" fill="white"/>
<path d="M1001.48 675.576C1001.48 675.576 977.382 715.741 979.938 761.748C980.303 761.748 1011.34 705.517 1001.48 675.576Z" fill="url(#paint50_linear_198_364)"/>
<path d="M1139.12 698.219C1143.5 719.762 1152.26 750.433 1166.86 773.802C1190.96 812.506 1225.64 860.339 1226.74 861.799C1243.53 868.007 1261.06 863.99 1272.01 860.339C1278.58 858.148 1282.96 855.592 1282.96 855.592C1282.96 855.592 1268.72 808.49 1232.21 759.562C1213.96 734.733 1192.05 712.825 1174.16 696.759C1174.16 696.759 1174.16 696.759 1173.8 696.394C1173.43 696.028 1173.43 696.028 1173.07 695.663L1172.7 695.298L1172.34 694.933L1171.97 694.568C1153.72 678.502 1139.48 669.739 1137.29 671.564C1135.46 673.025 1136.19 683.614 1139.12 698.219Z" fill="url(#paint51_linear_198_364)"/>
<path opacity="0.3" d="M1139.12 698.214C1143.5 719.757 1152.26 750.429 1166.86 773.797C1190.96 812.501 1225.64 860.334 1226.74 861.794L1272.01 860.334C1278.58 858.143 1282.96 855.587 1282.96 855.587C1282.96 855.587 1268.72 808.485 1232.21 759.557C1213.96 734.728 1192.06 712.82 1174.17 696.754C1184.39 706.247 1228.56 747.142 1245.72 785.847C1265.07 830.028 1218.71 820.534 1195.71 795.34C1172.71 770.146 1139.85 697.484 1139.85 697.484L1139.12 698.214Z" fill="url(#paint52_linear_198_364)"/>
<path d="M1186.58 743.495C1189.86 741.669 1178.18 723.412 1172.7 724.142C1167.23 724.873 1184.02 745.32 1186.58 743.495Z" fill="white"/>
<path d="M1275.29 835.511C1275.29 835.511 1263.61 812.143 1243.89 821.636C1224.18 830.764 1238.42 862.896 1238.42 862.896C1238.42 862.896 1264.7 874.946 1282.96 855.959C1282.96 855.959 1280.4 847.561 1275.29 835.511Z" fill="url(#paint53_linear_198_364)"/>
<path d="M1276.02 830.029C1276.02 830.029 1250.83 819.805 1239.15 831.489C1229.66 840.983 1233.31 861.43 1238.79 874.575C1244.26 887.72 1282.6 929.71 1299.76 929.345C1316.91 928.615 1326.04 909.993 1319.11 888.085C1319.11 888.085 1294.64 844.634 1276.02 830.029Z" fill="url(#paint54_linear_198_364)"/>
<path d="M1267.63 827.473C1267.63 827.473 1273.47 852.667 1291.36 869.463C1307.42 884.434 1316.18 920.582 1316.18 920.582C1316.18 920.582 1324.22 911.819 1319.47 888.085C1314.36 864.351 1267.63 827.473 1267.63 827.473Z" fill="url(#paint55_linear_198_364)"/>
<path opacity="0.5" d="M1318.01 883.338L1305.6 890.641C1305.6 890.641 1300.85 879.687 1293.91 872.384C1272.37 849.746 1267.99 827.473 1267.99 827.473L1297.2 854.127C1297.2 854.127 1304.5 861.795 1309.61 868.733C1312.17 872.384 1318.01 883.338 1318.01 883.338Z" fill="url(#paint56_linear_198_364)"/>
<path d="M1267.63 827.477C1267.63 827.477 1273.47 825.651 1294.28 825.286C1315.45 824.921 1326.77 830.763 1329.69 832.589C1332.61 834.414 1333.34 842.447 1329.33 846.829C1325.31 851.21 1288.07 857.783 1288.07 857.783C1288.07 857.783 1274.56 843.178 1267.63 827.477Z" fill="url(#paint57_linear_198_364)"/>
<path d="M1291.36 869.468C1291.36 869.468 1260.32 858.514 1236.96 869.468L1239.15 874.58C1239.15 874.58 1262.88 862.896 1294.28 872.389L1291.36 869.468Z" fill="url(#paint58_linear_198_364)"/>
<path d="M1312.9 830.395C1313.26 828.204 1292.82 828.569 1293.91 831.49C1294.64 834.411 1312.53 833.681 1312.9 830.395Z" fill="white"/>
<path d="M1136.93 671.924C1136.93 671.924 1161.02 712.089 1158.47 758.095C1158.1 758.095 1127.07 701.5 1136.93 671.924Z" fill="url(#paint59_linear_198_364)"/>
<path d="M1044.56 590.136C1044.56 590.136 1058.8 572.245 1073.76 568.958C1088.73 565.672 1093.84 583.929 1093.84 583.929C1093.84 583.929 1066.1 581.738 1044.56 590.136Z" fill="#2F95CD"/>
<path d="M1168.32 880.416C1161.39 921.311 1124.51 948.696 1071.94 948.696C1025.94 948.696 987.24 931.535 977.018 893.926C966.795 856.317 970.811 786.577 984.32 743.491C986.51 736.919 988.701 730.711 991.621 724.869C994.177 719.392 997.098 714.28 1000.38 709.533C1017.18 684.339 1041.64 667.908 1069.39 667.908C1098.23 667.908 1120.13 679.592 1135.47 697.484C1142.4 705.517 1147.88 715.01 1151.9 724.869C1156.28 736.188 1160.29 748.603 1163.21 761.017V761.383C1172.34 800.817 1174.53 843.903 1168.32 880.416Z" fill="url(#paint60_linear_198_364)"/>
<path opacity="0.3" d="M1168.32 880.42C1161.39 921.315 1124.51 948.7 1071.94 948.7C1025.94 948.7 987.24 931.539 977.018 893.93C966.795 856.321 970.811 786.581 984.32 743.495C986.51 736.922 988.701 730.715 991.621 724.873C991.621 724.873 963.875 816.887 986.145 875.673C1008.42 934.46 1111.74 932.999 1146.78 893.93C1180.01 857.052 1164.67 769.785 1163.21 761.386C1172.34 800.821 1174.53 843.907 1168.32 880.42Z" fill="url(#paint61_linear_198_364)"/>
<path d="M978.841 855.953C986.508 800.818 1031.05 763.574 1079.97 768.321C1132.91 773.433 1161.39 823.821 1160.66 867.272C1159.93 910.723 1128.16 944.316 1071.57 944.316C1014.62 944.316 971.54 907.802 978.841 855.953Z" fill="url(#paint62_linear_198_364)"/>
<path d="M979.57 860.704C987.237 805.569 1031.78 768.325 1080.7 772.707C1133.64 777.819 1162.11 828.207 1161.38 871.658C1160.65 915.109 1128.89 948.701 1072.3 948.701C1015.71 948.701 971.904 912.188 979.57 860.704Z" fill="url(#paint63_radial_198_364)"/>
<path opacity="0.5" d="M1135.1 697.484C1123.78 715.01 1062.08 725.234 1026.3 721.948C995.27 719.027 1000.02 710.629 1000.02 709.533C1016.81 684.339 1041.27 667.908 1069.02 667.908C1098.23 667.908 1120.13 679.592 1135.1 697.484Z" fill="url(#paint64_linear_198_364)"/>
<path d="M1113.19 727.795C1110.27 728.89 1110.27 751.894 1113.19 755.545C1116.12 759.196 1120.86 758.101 1122.69 752.624C1124.51 747.512 1117.58 726.334 1113.19 727.795Z" fill="white"/>
<path opacity="0.72" d="M998.192 825.648C1007.68 840.619 1046.02 832.586 1089.1 836.967C1132.18 841.349 1139.85 855.224 1148.97 852.303C1158.1 849.382 1143.86 784.388 1078.88 780.007C1014.26 775.625 996.001 821.997 998.192 825.648Z" fill="url(#paint65_linear_198_364)"/>
<path opacity="0.72" d="M1011.33 918.391C1011.33 918.391 1024.11 940.299 1071.21 940.664C1118.3 941.03 1137.65 912.549 1137.65 912.549C1137.65 912.549 1115.75 926.789 1084.72 918.391C1053.68 909.993 1023.02 905.246 1011.33 918.391Z" fill="url(#paint66_linear_198_364)"/>
</g>
</g>
<defs>
<filter id="filter0_d_198_364" x="801.625" y="395.156" width="550.505" height="660.151" filterUnits="userSpaceOnUse" color-interpolation-filters="sRGB">
<feFlood flood-opacity="0" result="BackgroundImageFix"/>
<feColorMatrix in="SourceAlpha" type="matrix" values="0 0 0 0 0 0 0 0 0 0 0 0 0 0 0 0 0 0 127 0" result="hardAlpha"/>
<feOffset dx="10.4087" dy="14.412"/>
<feGaussianBlur stdDeviation="4.804"/>
<feComposite in2="hardAlpha" operator="out"/>
<feColorMatrix type="matrix" values="0 0 0 0 0 0 0 0 0 0 0 0 0 0 0 0 0 0 0.25 0"/>
<feBlend mode="normal" in2="BackgroundImageFix" result="effect1_dropShadow_198_364"/>
<feBlend mode="normal" in="SourceGraphic" in2="effect1_dropShadow_198_364" result="shape"/>
</filter>
<linearGradient id="paint0_linear_198_364" x1="1065.02" y1="432.304" x2="1065.02" y2="12.9262" gradientUnits="userSpaceOnUse">
<stop stop-color="#8AFFFF"/>
<stop offset="1" stop-color="#79D3FD" stop-opacity="0"/>
</linearGradient>
<linearGradient id="paint1_linear_198_364" x1="1065.01" y1="432.304" x2="1065.01" y2="12.9262" gradientUnits="userSpaceOnUse">
<stop stop-color="#8AFFFF"/>
<stop offset="1" stop-color="#79D3FD" stop-opacity="0"/>
</linearGradient>
<linearGradient id="paint2_linear_198_364" x1="1114.52" y1="212.688" x2="1048.06" y2="336.613" gradientUnits="userSpaceOnUse">
<stop stop-color="#0F172A" stop-opacity="0.23"/>
<stop offset="1" stop-color="#0F172A"/>
</linearGradient>
<linearGradient id="paint3_linear_198_364" x1="942.625" y1="222.748" x2="1171.93" y2="222.748" gradientUnits="userSpaceOnUse">
<stop stop-color="#0F172A"/>
<stop offset="1" stop-color="#0F172A"/>
</linearGradient>
<linearGradient id="paint4_linear_198_364" x1="955.852" y1="222.743" x2="1158.71" y2="222.743" gradientUnits="userSpaceOnUse">
<stop stop-color="#0F172A" stop-opacity="0.31"/>
<stop offset="1" stop-color="#0F172A"/>
</linearGradient>
<linearGradient id="paint5_linear_198_364" x1="961.857" y1="77.7455" x2="984.02" y2="77.7455" gradientUnits="userSpaceOnUse">
<stop stop-color="#F9DD68"/>
<stop offset="1" stop-color="#F9A942"/>
</linearGradient>
<linearGradient id="paint6_linear_198_364" x1="975.3" y1="374.134" x2="1003.69" y2="374.134" gradientUnits="userSpaceOnUse">
<stop stop-color="#F9DD68"/>
<stop offset="1" stop-color="#F9A942"/>
</linearGradient>
<linearGradient id="paint7_linear_198_364" x1="1153.42" y1="339.641" x2="1163.99" y2="339.641" gradientUnits="userSpaceOnUse">
<stop stop-color="#F9DD68"/>
<stop offset="1" stop-color="#F9A942"/>
</linearGradient>
<linearGradient id="paint8_linear_198_364" x1="1069.99" y1="411.203" x2="1078.58" y2="411.203" gradientUnits="userSpaceOnUse">
<stop stop-color="#F9DD68"/>
<stop offset="1" stop-color="#F9A942"/>
</linearGradient>
<linearGradient id="paint9_linear_198_364" x1="915.553" y1="189.31" x2="924.142" y2="189.31" gradientUnits="userSpaceOnUse">
<stop stop-color="#F9DD68"/>
<stop offset="1" stop-color="#F9A942"/>
</linearGradient>
<linearGradient id="paint10_linear_198_364" x1="1122.65" y1="82.0397" x2="1131.24" y2="82.0397" gradientUnits="userSpaceOnUse">
<stop stop-color="#F9DD68"/>
<stop offset="1" stop-color="#F9A942"/>
</linearGradient>
<linearGradient id="paint11_linear_198_364" x1="1126.94" y1="381.835" x2="1139.94" y2="381.835" gradientUnits="userSpaceOnUse">
<stop stop-color="#F9DD68"/>
<stop offset="1" stop-color="#F9A942"/>
</linearGradient>
<linearGradient id="paint12_linear_198_364" x1="1193.75" y1="168.897" x2="1206.75" y2="168.897" gradientUnits="userSpaceOnUse">
<stop stop-color="#F9DD68"/>
<stop offset="1" stop-color="#F9A942"/>
</linearGradient>
<linearGradient id="paint13_linear_198_364" x1="1185.17" y1="1027.05" x2="1142.21" y2="867.195" gradientUnits="userSpaceOnUse">
<stop stop-color="#CBC1F7"/>
<stop offset="1" stop-color="#E8DCF7"/>
</linearGradient>
<linearGradient id="paint14_linear_198_364" x1="1161.83" y1="929.164" x2="1139.28" y2="873.903" gradientUnits="userSpaceOnUse">
<stop stop-color="#BE9DEA"/>
<stop offset="1" stop-color="#9E8CEF"/>
</linearGradient>
<linearGradient id="paint15_linear_198_364" x1="1198.16" y1="1017.55" x2="1139.33" y2="873.389" gradientUnits="userSpaceOnUse">
<stop stop-color="#9D68C2"/>
<stop offset="1" stop-color="#CCEDFF"/>
</linearGradient>
<linearGradient id="paint16_linear_198_364" x1="962.82" y1="1036.05" x2="1005.77" y2="876.192" gradientUnits="userSpaceOnUse">
<stop stop-color="#CBC1F7"/>
<stop offset="1" stop-color="#E8DCF7"/>
</linearGradient>
<linearGradient id="paint17_linear_198_364" x1="986.155" y1="938.167" x2="1008.71" y2="882.906" gradientUnits="userSpaceOnUse">
<stop stop-color="#BE9DEA"/>
<stop offset="1" stop-color="#9E8CEF"/>
</linearGradient>
<linearGradient id="paint18_linear_198_364" x1="949.825" y1="1026.55" x2="1008.66" y2="882.386" gradientUnits="userSpaceOnUse">
<stop stop-color="#9D68C2"/>
<stop offset="1" stop-color="#CCEDFF"/>
</linearGradient>
<linearGradient id="paint19_linear_198_364" x1="938.654" y1="538.785" x2="938.654" y2="412.174" gradientUnits="userSpaceOnUse">
<stop stop-color="#B9ACF4"/>
<stop offset="1" stop-color="#E1D1F5"/>
</linearGradient>
<linearGradient id="paint20_linear_198_364" x1="929.588" y1="490.954" x2="929.588" y2="412.174" gradientUnits="userSpaceOnUse">
<stop stop-color="#BE9DEA"/>
<stop offset="1" stop-color="#9E8CEF"/>
</linearGradient>
<linearGradient id="paint21_linear_198_364" x1="1199.78" y1="538.785" x2="1199.78" y2="412.174" gradientUnits="userSpaceOnUse">
<stop stop-color="#B9ACF4"/>
<stop offset="1" stop-color="#E1D1F5"/>
</linearGradient>
<linearGradient id="paint22_linear_198_364" x1="1208.97" y1="480.989" x2="1208.97" y2="412.16" gradientUnits="userSpaceOnUse">
<stop stop-color="#BE9DEA"/>
<stop offset="1" stop-color="#9E8CEF"/>
</linearGradient>
<linearGradient id="paint23_linear_198_364" x1="1226.08" y1="544.844" x2="1226.08" y2="420.444" gradientUnits="userSpaceOnUse">
<stop stop-color="#B61ADD"/>
<stop offset="1" stop-color="#A911FE"/>
</linearGradient>
<linearGradient id="paint24_linear_198_364" x1="912.352" y1="544.844" x2="912.352" y2="420.444" gradientUnits="userSpaceOnUse">
<stop stop-color="#7C1ADD"/>
<stop offset="1" stop-color="#A911FE"/>
</linearGradient>
<linearGradient id="paint25_linear_198_364" x1="1055.56" y1="718.368" x2="1095.81" y2="397.877" gradientUnits="userSpaceOnUse">
<stop stop-color="#CBC1F7"/>
<stop offset="1" stop-color="#E8DCF7"/>
</linearGradient>
<linearGradient id="paint26_linear_198_364" x1="1068.69" y1="630.51" x2="1068.69" y2="406.255" gradientUnits="userSpaceOnUse">
<stop stop-color="#0665BD"/>
<stop offset="1" stop-color="#1A1F77"/>
</linearGradient>
<linearGradient id="paint27_linear_198_364" x1="1069.79" y1="715.405" x2="1069.79" y2="524.375" gradientUnits="userSpaceOnUse">
<stop stop-color="#9D68C2"/>
<stop offset="1" stop-color="#CCEDFF"/>
</linearGradient>
<linearGradient id="paint28_linear_198_364" x1="941.057" y1="690.576" x2="1189.96" y2="690.576" gradientUnits="userSpaceOnUse">
<stop stop-color="#8879EA"/>
<stop offset="1" stop-color="#9E8CEF"/>
</linearGradient>
<linearGradient id="paint29_linear_198_364" x1="1065.15" y1="701.668" x2="1065.15" y2="665.787" gradientUnits="userSpaceOnUse">
<stop stop-color="#8DA4E5"/>
<stop offset="1" stop-color="#755CBB"/>
</linearGradient>
<linearGradient id="paint30_linear_198_364" x1="1064.51" y1="696.588" x2="1069.19" y2="659.387" gradientUnits="userSpaceOnUse">
<stop stop-color="#5E36CC"/>
<stop offset="1" stop-color="#6C4A96"/>
</linearGradient>
<linearGradient id="paint31_linear_198_364" x1="938.087" y1="671.111" x2="938.087" y2="620.768" gradientUnits="userSpaceOnUse">
<stop stop-color="#8DA4E5"/>
<stop offset="1" stop-color="#755CBB"/>
</linearGradient>
<linearGradient id="paint32_linear_198_364" x1="869.748" y1="638.215" x2="888.2" y2="491.317" gradientUnits="userSpaceOnUse">
<stop stop-color="#BE9DEA"/>
<stop offset="1" stop-color="#9E8CEF"/>
</linearGradient>
<linearGradient id="paint33_linear_198_364" x1="941.377" y1="639.089" x2="950.869" y2="598.782" gradientUnits="userSpaceOnUse">
<stop stop-color="#7C1ADD"/>
<stop offset="1" stop-color="#A911FE"/>
</linearGradient>
<linearGradient id="paint34_linear_198_364" x1="959.818" y1="459.015" x2="1189.2" y2="459.015" gradientUnits="userSpaceOnUse">
<stop/>
<stop offset="1" stop-color="#6A9BFF"/>
</linearGradient>
<linearGradient id="paint35_linear_198_364" x1="992.245" y1="611.862" x2="1158.5" y2="611.862" gradientUnits="userSpaceOnUse">
<stop/>
<stop offset="1" stop-color="#6A9BFF"/>
</linearGradient>
<linearGradient id="paint36_linear_198_364" x1="1228.89" y1="533.105" x2="1228.89" y2="527.928" gradientUnits="userSpaceOnUse">
<stop stop-color="#9D68C2"/>
<stop offset="1" stop-color="#CCEDFF"/>
</linearGradient>
<linearGradient id="paint37_linear_198_364" x1="943.935" y1="619.038" x2="943.935" y2="601.457" gradientUnits="userSpaceOnUse">
<stop stop-color="#A73DE3"/>
<stop offset="1" stop-color="#C16DFF"/>
</linearGradient>
<linearGradient id="paint38_linear_198_364" x1="937.683" y1="584.126" x2="943.372" y2="501.157" gradientUnits="userSpaceOnUse">
<stop/>
<stop offset="1" stop-color="#00E3FF"/>
</linearGradient>
<linearGradient id="paint39_linear_198_364" x1="1206.31" y1="451.565" x2="1238.67" y2="451.565" gradientUnits="userSpaceOnUse">
<stop/>
<stop offset="1" stop-color="#D4E2FF"/>
</linearGradient>
<linearGradient id="paint40_linear_198_364" x1="895.86" y1="446.568" x2="931.526" y2="446.568" gradientUnits="userSpaceOnUse">
<stop stop-color="#D4E2FF"/>
<stop offset="1"/>
</linearGradient>
<linearGradient id="paint41_linear_198_364" x1="866.833" y1="538.931" x2="867.511" y2="497.827" gradientUnits="userSpaceOnUse">
<stop stop-color="#CBC1F7"/>
<stop offset="1" stop-color="#E8DCF7"/>
</linearGradient>
<linearGradient id="paint42_linear_198_364" x1="898.084" y1="874.618" x2="966.396" y2="664.19" gradientUnits="userSpaceOnUse">
<stop stop-color="#CBC1F7"/>
<stop offset="1" stop-color="#E8DCF7"/>
</linearGradient>
<linearGradient id="paint43_linear_198_364" x1="909.929" y1="872.637" x2="944.574" y2="691.469" gradientUnits="userSpaceOnUse">
<stop stop-color="#9D68C2"/>
<stop offset="1" stop-color="#CCEDFF"/>
</linearGradient>
<linearGradient id="paint44_linear_198_364" x1="880.843" y1="870.392" x2="879.124" y2="823.41" gradientUnits="userSpaceOnUse">
<stop stop-color="#BE9DEA"/>
<stop offset="1" stop-color="#9E8CEF"/>
</linearGradient>
<linearGradient id="paint45_linear_198_364" x1="902.982" y1="838.985" x2="817.807" y2="919.686" gradientUnits="userSpaceOnUse">
<stop stop-color="#CBC1F7"/>
<stop offset="1" stop-color="#E8DCF7"/>
</linearGradient>
<linearGradient id="paint46_linear_198_364" x1="877.113" y1="853.497" x2="807.798" y2="904.408" gradientUnits="userSpaceOnUse">
<stop stop-color="#BE9DEA"/>
<stop offset="1" stop-color="#9E8CEF"/>
</linearGradient>
<linearGradient id="paint47_linear_198_364" x1="862.851" y1="860.573" x2="822.7" y2="890.064" gradientUnits="userSpaceOnUse">
<stop stop-color="#8DA4E5"/>
<stop offset="1" stop-color="#755CBB"/>
</linearGradient>
<linearGradient id="paint48_linear_198_364" x1="860.064" y1="838.734" x2="807.211" y2="888.812" gradientUnits="userSpaceOnUse">
<stop stop-color="#CBC1F7"/>
<stop offset="1" stop-color="#E8DCF7"/>
</linearGradient>
<linearGradient id="paint49_linear_198_364" x1="892.989" y1="861.334" x2="854.566" y2="889.555" gradientUnits="userSpaceOnUse">
<stop stop-color="#BE9DEA"/>
<stop offset="1" stop-color="#9E8CEF"/>
</linearGradient>
<linearGradient id="paint50_linear_198_364" x1="982.125" y1="718.161" x2="1001.63" y2="719.43" gradientUnits="userSpaceOnUse">
<stop stop-color="#8879EA"/>
<stop offset="1" stop-color="#9E8CEF"/>
</linearGradient>
<linearGradient id="paint51_linear_198_364" x1="1240.34" y1="870.881" x2="1172.03" y2="660.454" gradientUnits="userSpaceOnUse">
<stop stop-color="#CBC1F7"/>
<stop offset="1" stop-color="#E8DCF7"/>
</linearGradient>
<linearGradient id="paint52_linear_198_364" x1="1228.5" y1="868.899" x2="1193.85" y2="687.73" gradientUnits="userSpaceOnUse">
<stop stop-color="#9D68C2"/>
<stop offset="1" stop-color="#CCEDFF"/>
</linearGradient>
<linearGradient id="paint53_linear_198_364" x1="1257.58" y1="866.657" x2="1259.3" y2="819.675" gradientUnits="userSpaceOnUse">
<stop stop-color="#BE9DEA"/>
<stop offset="1" stop-color="#9E8CEF"/>
</linearGradient>
<linearGradient id="paint54_linear_198_364" x1="1235.44" y1="835.247" x2="1320.62" y2="915.948" gradientUnits="userSpaceOnUse">
<stop stop-color="#CBC1F7"/>
<stop offset="1" stop-color="#E8DCF7"/>
</linearGradient>
<linearGradient id="paint55_linear_198_364" x1="1253.94" y1="846.109" x2="1329.78" y2="901.815" gradientUnits="userSpaceOnUse">
<stop stop-color="#BE9DEA"/>
<stop offset="1" stop-color="#9E8CEF"/>
</linearGradient>
<linearGradient id="paint56_linear_198_364" x1="1259.23" y1="838.911" x2="1318.55" y2="882.482" gradientUnits="userSpaceOnUse">
<stop stop-color="#8DA4E5"/>
<stop offset="1" stop-color="#755CBB"/>
</linearGradient>
<linearGradient id="paint57_linear_198_364" x1="1267.57" y1="841.155" x2="1332.19" y2="841.618" gradientUnits="userSpaceOnUse">
<stop stop-color="#CBC1F7"/>
<stop offset="1" stop-color="#E8DCF7"/>
</linearGradient>
<linearGradient id="paint58_linear_198_364" x1="1245.43" y1="857.601" x2="1283.86" y2="885.823" gradientUnits="userSpaceOnUse">
<stop stop-color="#BE9DEA"/>
<stop offset="1" stop-color="#9E8CEF"/>
</linearGradient>
<linearGradient id="paint59_linear_198_364" x1="1156.3" y1="714.423" x2="1136.8" y2="715.691" gradientUnits="userSpaceOnUse">
<stop stop-color="#8879EA"/>
<stop offset="1" stop-color="#9E8CEF"/>
</linearGradient>
<linearGradient id="paint60_linear_198_364" x1="1057.3" y1="948.405" x2="1092.28" y2="669.98" gradientUnits="userSpaceOnUse">
<stop stop-color="#CBC1F7"/>
<stop offset="1" stop-color="#E8DCF7"/>
</linearGradient>
<linearGradient id="paint61_linear_198_364" x1="1071.52" y1="948.885" x2="1071.52" y2="724.879" gradientUnits="userSpaceOnUse">
<stop stop-color="#9D68C2"/>
<stop offset="1" stop-color="#CCEDFF"/>
</linearGradient>
<linearGradient id="paint62_linear_198_364" x1="1069.37" y1="944.327" x2="1069.37" y2="767.901" gradientUnits="userSpaceOnUse">
<stop stop-color="#BE9DEA"/>
<stop offset="1" stop-color="#9E8CEF"/>
</linearGradient>
<radialGradient id="paint63_radial_198_364" cx="0" cy="0" r="1" gradientUnits="userSpaceOnUse" gradientTransform="translate(1075.4 927.097) scale(140.879 140.896)">
<stop stop-color="#9E40E0"/>
<stop offset="1" stop-color="#DD1AC9"/>
</radialGradient>
<linearGradient id="paint64_linear_198_364" x1="1067.65" y1="722.503" x2="1067.65" y2="667.895" gradientUnits="userSpaceOnUse">
<stop stop-color="#8DA4E5"/>
<stop offset="1" stop-color="#755CBB"/>
</linearGradient>
<linearGradient id="paint65_linear_198_364" x1="997.98" y1="816.169" x2="1151.38" y2="816.169" gradientUnits="userSpaceOnUse">
<stop/>
<stop offset="1" stop-color="#FF955C"/>
</linearGradient>
<linearGradient id="paint66_linear_198_364" x1="1074.68" y1="940.827" x2="1074.68" y2="910.267" gradientUnits="userSpaceOnUse">
<stop stop-color="#FF4B90"/>
<stop offset="1"/>
</linearGradient>
<clipPath id="clip0_198_364">
<rect width="1390" height="1035" fill="white"/>
</clipPath>
</defs>
</svg>
