<svg width="31" height="29" viewBox="0 0 31 29" fill="none" xmlns="http://www.w3.org/2000/svg">
<path d="M5.15385 15.2509C5.38171 15.0796 5.58914 14.9143 5.76701 14.7726C5.83643 14.7173 5.90135 14.6656 5.96122 14.6185C7.97757 13.0326 9.82685 11.2777 11.6765 9.52252C13.0529 8.21638 14.4295 6.91007 15.8752 5.67308C17.0555 6.80613 18.2451 7.92733 19.4345 9.04835C21.4369 10.9356 23.4387 12.8222 25.3944 14.7639C25.4534 14.8225 25.5229 14.8938 25.6017 14.9746C25.6657 15.0402 25.7357 15.112 25.8111 15.1882C26.1623 19.2818 26.3442 23.1087 26.4423 27.1504C25.8605 27.1639 25.1692 27.1684 24.4432 27.1731C23.04 27.1823 21.5073 27.1922 20.3853 27.2696C20.3838 26.8475 20.3962 26.3973 20.4091 25.9308C20.4675 23.8179 20.535 21.3731 19.3566 19.7111C17.5236 17.1256 13.1593 18.3728 11.9033 20.8768C11.0602 22.5576 11.3667 24.8431 11.6236 26.7577C11.6654 27.0693 11.7059 27.3711 11.7399 27.6589C10.9561 27.7202 10.1717 27.7341 9.38799 27.748C8.15078 27.7699 6.91515 27.7918 5.68622 28C5.46234 23.75 5.25601 19.5041 5.15385 15.2509Z" stroke="white" stroke-miterlimit="1.5" stroke-linecap="round" stroke-linejoin="round"/>
<path d="M11.7625 28C12.8752 27.9404 13.9905 27.8955 15.1072 27.8505C16.7918 27.7827 18.4796 27.7147 20.1668 27.5961L20.1678 27.5908L20.1627 27.5912C20.1612 27.1471 20.1733 26.6733 20.1858 26.1826C20.2425 23.9594 20.3081 21.3869 19.1632 19.6382C17.3822 16.9178 13.1418 18.2301 11.9213 20.8647C11.1021 22.6332 11.4 25.038 11.6496 27.0525C11.6901 27.3801 11.7295 27.6974 11.7625 28Z" stroke="white" stroke-miterlimit="1.5" stroke-linecap="round" stroke-linejoin="round"/>
<path fill-rule="evenodd" clip-rule="evenodd" d="M17.8447 1.32391C16.7991 0.734179 15.5534 1.00373 14.6613 1.69782C10.7063 4.77479 6.47685 7.93923 3.0633 11.6442C2.15061 12.6348 -0.0100694 15.0282 1.55019 16.2657C2.85626 17.3017 5.01475 15.3818 5.94254 14.6278C9.40376 11.8146 12.3648 8.47883 15.6998 5.5303C18.817 8.6225 22.0003 11.628 25.0684 14.7757C25.7581 15.4832 27.9145 18.0197 29.2949 16.7419C30.8811 15.2738 29.6875 13.5761 28.9228 12.6382C26.0681 9.1376 20.9836 4.5457 17.8447 1.32391Z" stroke="white" stroke-miterlimit="1.5" stroke-linecap="round" stroke-linejoin="round"/>
<path fill-rule="evenodd" clip-rule="evenodd" d="M17.1987 11.6539C15.2226 9.41877 12.2289 12.4544 14.0013 14.3322C14.6328 15.0012 15.7121 15.2441 16.5193 14.7789C17.5186 14.2028 18.0313 12.5957 17.1987 11.6539Z" stroke="white" stroke-miterlimit="1.5" stroke-linecap="round" stroke-linejoin="round"/>
</svg>
